<svg xmlns="http://www.w3.org/2000/svg" version="1.0" width="50.000000pt" height="63.000000pt" viewBox="0 0 50.000000 63.000000" preserveAspectRatio="xMidYMid meet">

<g transform="translate(0.000000,63.000000) scale(0.100000,-0.100000)" fill="#ff0000" stroke="none">
<path d="M40 622 l-25 -8 -3 -292 c-2 -272 -1 -293 15 -300 10 -4 83 -7 163 -7 136 0 148 2 202 27 44 21 61 35 77 67 40 78 19 181 -44 209 -29 13 -32 34 -9 53 74 61 52 181 -42 229 -44 22 -62 25 -179 27 -71 1 -141 -1 -155 -5z m263 -89 c29 -17 32 -24 32 -67 0 -67 -24 -83 -132 -92 l-83 -7 0 98 0 98 75 -6 c47 -3 88 -13 108 -24z m25 -257 c35 -18 45 -43 40 -102 -2 -30 -10 -43 -35 -60 -34 -23 -132 -38 -183 -28 l-30 6 0 106 0 105 88 -5 c53 -3 100 -12 120 -22z" fill="#ff0000"/>
</g>
</svg>